<svg width="200" height="200" viewBox="0 0 40 40" fill="none" xmlns="http://www.w3.org/2000/svg">
<path d="M6.88235 30V19.6471H3L15.9412 8L21.1176 12.6588V9.29412H25V16.1529L28.8823 19.6471H25V30H17.2353V22.2353H14.6471V30H6.88235ZM9.47059 27.4118H12.0588V19.6471H19.8235V27.4118H22.4118V17.3176L15.9412 11.4941L9.47059 17.3176V27.4118ZM13.3529 17.0912H18.5294C18.5294 16.401 18.2706 15.8346 17.7529 15.392C17.2353 14.9494 16.6314 14.7285 15.9412 14.7294C15.251 14.7294 14.6471 14.9507 14.1294 15.3933C13.6118 15.8359 13.3529 16.4018 13.3529 17.0912Z" fill="#192BAA"/>
<path d="M1 21.5L4.78922 23.8156C24.1571 35.6516 48.8402 34.2077 66.696 20.1943V20.1943C72.5845 15.5729 80.732 15.1198 87.0966 19.0598L108 32" stroke="#A0A8E0" stroke-opacity="0.34" stroke-width="2"/>
<path d="M41.272 18.282L33.922 35.565H30.058L32.746 29.601L27.979 18.282H31.99L34.699 25.611L37.387 18.282H41.272Z" fill="#192BAA"/>
</svg>